<svg xmlns="http://www.w3.org/2000/svg" width="70.265" height="73.574"><g stroke="#000"><path d="M33.372 7.64c-8.967.948-16.593 3.346-25.346 6.194l.282 5.703-1.408 2.148-3.838 9.47 4.894.21 1.302-2.815 10.104-1.127 1.056 1.62 9.645.81v11.687l-2.393 3.203v13.553l2.006.88.106 2.042-7.04 7.956-3.275.634.106 3.027 4.365-1.162 11.44-10.28 3.592-.843 2.288 3.66 19.256-1.16.67-5.916 2.533-3.203.07-8.483 5.844-5.844c-2.678-8.55-6.666-17.748-12.089-23.649l-5.324 11.983h1.998l-2.225 8.322-4.366 4.188h-13.415l.178-12.51h5.06l8.503-17c-4.286-3.282-9.674-3.576-14.579-3.298z"/><path d="M9.882 35.29l-8.078-.442-.804 13.378.075 10.785 1.965 10.784 12.962-.362 1.012-3.16 3.63-1.076 3.383-4.943-.127-17.264 2.392-2.947.1-6.614-7.116.05-1.456-2.028-6.626.812z" fill="none"/><path d="M57.25.75l-14.313 29.938h-5.344v6.844h8l2.719-2.25 1.125-4.594h-3.188l13.719-28.656z"/></g></svg>