<svg xmlns="http://www.w3.org/2000/svg" width="74.75" height="65.031"><g stroke="#000"><path d="M40.063.563c-13.563 2.072-28.371 12.074-34.219 21.875-2.579 5.953-3.664 12.486-5.125 18.781l5.344-1.406 3.531-4.781 11.281-5.219 5.438 1.688-.719 11-7.75 12.625 3.625 3.438 4.563-3.188 6.844 3.125 6.906-4.063 10.625 3.781 11.406-6.25c.98-13.668-2.896-27.785-16.719-31.781-7.233-1.062-18.039-.447-21.781 7.063l-5.781 2.063c5.635-15.407 26.249-15.706 37-9.563 9.498 7.607 10.687 17.796 11.188 29.25l5.719-13.094 2.719-11.031c-5.777-5.896-11.586-13.628-17.781-17.656-4.959-3.148-16.313-6.656-16.313-6.656zm-17.844 39.5l-3.906 1.75-6.281 1.719-2.688-1.063-3.281 3.656 4.031 8.75-1.781 9.313 9.969-4.219-4.531-4.125 7.313-12.406z"/><path d="M12.587 36.512l-2.19 2.14 1.952.816 6.587-1.266 3.71-1.792.545-2.074-2.034-1.283z" fill="none"/></g></svg>