<svg xmlns="http://www.w3.org/2000/svg" width="79.998" height="67.84"><defs><filter color-interpolation-filters="sRGB"><feGaussianBlur result="result6" stdDeviation="1.5"/><feComposite in2="result6" operator="atop" in="SourceGraphic" result="result8"/><feComposite in2="SourceAlpha" in="result8" operator="arithmetic" result="result9"/></filter><filter y="-.25" height="1.5" color-interpolation-filters="sRGB" width="0"><feGaussianBlur stdDeviation="4.915" result="result6"/><feComposite in2="result6" result="result8" in="SourceGraphic" operator="atop"/><feComposite in2="SourceAlpha" result="result9" in="result8"/><feColorMatrix values="1 0 0 0 0 0 1 0 0 0 0 0 1 0 0 0 0 0 1 0" result="result10"/><feBlend in2="result6" in="result10"/></filter><filter color-interpolation-filters="sRGB"><feFlood flood-opacity=".38" flood-color="#000" result="flood"/><feComposite in2="SourceGraphic" in="flood" operator="in" result="composite1"/><feGaussianBlur stdDeviation="3" result="blur"/><feOffset dx="3" dy="3" result="offset"/><feComposite in2="offset" in="SourceGraphic" result="composite2"/></filter><filter color-interpolation-filters="sRGB"><feFlood flood-opacity=".38" flood-color="#000" result="flood"/><feComposite in2="SourceGraphic" in="flood" operator="in" result="composite1"/><feGaussianBlur stdDeviation="3" result="blur"/><feOffset dx="3" dy="3" result="offset"/><feComposite in2="offset" in="SourceGraphic" result="composite2"/></filter><filter color-interpolation-filters="sRGB"><feFlood flood-opacity=".38" flood-color="#000" result="flood"/><feComposite in2="SourceGraphic" in="flood" operator="in" result="composite1"/><feGaussianBlur stdDeviation="3" result="blur"/><feOffset dx="3" dy="3" result="offset"/><feComposite in2="offset" in="SourceGraphic" result="composite2"/></filter><filter color-interpolation-filters="sRGB"><feFlood flood-opacity=".38" flood-color="#000" result="flood"/><feComposite in2="SourceGraphic" in="flood" operator="in" result="composite1"/><feGaussianBlur stdDeviation="3" result="blur"/><feOffset dx="3" dy="3" result="offset"/><feComposite in2="offset" in="SourceGraphic" result="composite2"/></filter></defs><g><path d="M2.378 54.216l22.7-.865 16.368-5.11 12.301-20.083-15.978-22.662c-19.307.367-39.077 17.575-35.391 48.72z" fill="#00aad4" stroke="#000" stroke-width="3.857684"/><path d="M22.57 3.636l5.872 7.36 14.358 8.607-6.595 4.826.965 2.212 9.33.201.081 2.614c-10.349 6.156-9.959 19.173-.563 24.211l-9.411 10.416 2.976 2.976 15.886-7.802 10.899.965 12.99-7.159v-12.427l-3.177-3.941-16.248-5.791-5.59-8.526 12.105-9.089c-8.848-16.351-30.656-13.545-43.877-9.652zm46.979 12.241l-10 7.024 3.171 4.57 12.692 4.376.244-15.583z" stroke="#000" stroke-width="1.28607"/><path d="M3.784 52.613c.457-36.886 37.174-42.223 63.384-38.654l-6.123 4.61c-28.171-.701-48.905 4.398-57.261 34.044z" fill="#fff"/></g></svg>