<svg xmlns="http://www.w3.org/2000/svg" width="79.063" height="72.592"><g stroke="#000"><path d="M47.813.5c-14.208-.225-32.892 9.059-40 17.844l6.625 3.719c12.641-10.729 23.036-13.16 38.151-13.214zm3.5.063l5.813 11.313c-16.254-.645-33.981 4.904-41.469 13.969l-9.719-4.906-5.344 11.094 10.094 7.188 16.531-2.906 5.313 3.531 8.469-3.031 1.625-9.594 6.844-3.156 9.344 5.188 11.295-.077-5.639 10.421.031 6.563-6.719 3.938 5.313 3.531 7.969-2.406-1.406-10.594 8.844-15.406-6.563-14.156-10.344-9.844s-4.739-.476-10.281-.656zm-1.469 27.688l-4.031 1.688-1.969 9.781-9.719 3.438-.719 2.719 3.125 5.656 2.831 1.678-14.769 13.541-5.813-1.25.375 5.781 4.156.781 3.031-2.781 20.781-19.063 2.844 1 11.094-6.344-.063-5.875 3.885-6.601-7.041.476z"/><path d="M12.46 42.74l.758 3.408 3.915 1.642 2.4 4.167 9.343-4.925 1.768-3.914-3.946-3z" fill="none"/></g></svg>