<svg xmlns="http://www.w3.org/2000/svg" width="80.193" height="76.913"><defs><filter color-interpolation-filters="sRGB"><feGaussianBlur result="result6" stdDeviation="1.5"/><feComposite in2="result6" operator="atop" in="SourceGraphic" result="result8"/><feComposite in2="SourceAlpha" in="result8" operator="arithmetic" result="result9"/></filter><filter y="-.25" height="1.5" color-interpolation-filters="sRGB" width="0"><feGaussianBlur stdDeviation="4.915" result="result6"/><feComposite in2="result6" result="result8" in="SourceGraphic" operator="atop"/><feComposite in2="SourceAlpha" result="result9" in="result8"/><feColorMatrix values="1 0 0 0 0 0 1 0 0 0 0 0 1 0 0 0 0 0 1 0" result="result10"/><feBlend in2="result6" in="result10"/></filter><filter color-interpolation-filters="sRGB"><feFlood flood-opacity=".38" flood-color="#000" result="flood"/><feComposite in2="SourceGraphic" in="flood" operator="in" result="composite1"/><feGaussianBlur stdDeviation="3" result="blur"/><feOffset dx="3" dy="3" result="offset"/><feComposite in2="offset" in="SourceGraphic" result="composite2"/></filter><filter color-interpolation-filters="sRGB"><feFlood flood-opacity=".38" flood-color="#000" result="flood"/><feComposite in2="SourceGraphic" in="flood" operator="in" result="composite1"/><feGaussianBlur stdDeviation="3" result="blur"/><feOffset dx="3" dy="3" result="offset"/><feComposite in2="offset" in="SourceGraphic" result="composite2"/></filter><filter color-interpolation-filters="sRGB"><feFlood flood-opacity=".38" flood-color="#000" result="flood"/><feComposite in2="SourceGraphic" in="flood" operator="in" result="composite1"/><feGaussianBlur stdDeviation="3" result="blur"/><feOffset dx="3" dy="3" result="offset"/><feComposite in2="offset" in="SourceGraphic" result="composite2"/></filter><filter color-interpolation-filters="sRGB"><feFlood flood-opacity=".38" flood-color="#000" result="flood"/><feComposite in2="SourceGraphic" in="flood" operator="in" result="composite1"/><feGaussianBlur stdDeviation="3" result="blur"/><feOffset dx="3" dy="3" result="offset"/><feComposite in2="offset" in="SourceGraphic" result="composite2"/></filter></defs><g><path d="M4.27 25.975c-3.417 8.841-4.164 23.369 8.23 31.195 16.816.197 25.409-1.712 40.974-6.81 16.849-15.099.672-38.46-8.217-27.349-13.548 3.185-27.186 2.885-40.987 2.964z" fill="#c83737" stroke="#000" stroke-width="4.210056"/><path d="M4.614 27.217c16.216.475 20.931-3.103 27.886-11.928 4.864-4.081 10.592-7.424 16.706-9.137 2.95-.826 6.663-1.363 10.615-1.714-20.871-10.024-50.441-1.612-55.207 22.779zm61.225-18.293c-2.94.106-6.009.344-8.991.748-5.759.78-10.617 3.079-14.554 4.961-10.017 7.866-20.619 13.368-2.28 11.107l3.903 2.881c-11.371 8.852-.089 10.825 3.466 10.359l-2.298 3.989 3.521 7.881-9.86 3.791c5.448 15.27-13.202 19.09-21.62 14.505l-1.167 2.936 4.231 4.505 18.074-4.14 7.441-9.247c7.787-1.507 11.665-3.767 17.397-7.298l16.599-3.845-6.274-9.612c4.485-7.58 6.158-12.272 5.836-20.609l-7.879-4.103z" stroke="#000" stroke-width="0.6015199999999999"/><path d="M24.369 24.364c10.437-14.427 20.533-17.826 36.044-19.976 2.608 1.002 4.958 2.901 5.883 4.797-14.621.777-24.398 3.791-33.698 14.038z" fill="#fff"/></g></svg>