<svg xmlns="http://www.w3.org/2000/svg" width="76.2" height="79.934"><g stroke="#000"><path d="M.607 57.025l5.593-8.315 5.613.023 3.347-4.733 12.474-8.468 1.883-4.893 36.741-30.239 4.325 1.226-13.203 19.742 6.358 2.474 11.186-4.767-4.102 7.988 4.586-1.766-5.315 9.606-9.732 4.543 2.145 2.42-1.83 10.63-2.106 2.44 4.24 9.848-1.842 5.432-5.755-10.82-6.022 1.04 3.656-10.956.058-8-14.207 2.327-2.033 5.62-3.605.526-3.367-2.198-15.056 6.52-1.996 4.578zm5.79-11.125c3.801-17.12 16.05-25.393 30.189-32.188l6.48 1.126-16.14 14.217-1.687 4.367-11.83 8.334-2.825 3.905zm29.971 7.416l-2.27 1.772 2.376 4.52-2.715 4.46-7.41 4.362.466 10.935 9.295-5.21 9.235-6.155 3.957-4.338-4.71 1.164 4.515-13.693-.007-5.208-7.526 1.118-1.916 5.96z"/><path d="M15.95 60.11l4.466 3.355 5.56-6.34 5.02-3.923-2.14-1.382-11.76 5.165z" fill="none"/></g></svg>